<?xml version="1.0" encoding="UTF-8" standalone="no"?><svg xmlns="http://www.w3.org/2000/svg" xmlns:xlink="http://www.w3.org/1999/xlink" contentScriptType="text/ecmascript" zoomAndPan="magnify" contentStyleType="text/css" version="1" width="1886" stroke-miterlimit="2" clip-rule="evenodd" fill="#9ada85" preserveAspectRatio="xMidYMid meet" viewBox="389.6 2526.6 1885.8 426.2" height="426" stroke-linejoin="round" fill-rule="evenodd"><g><g transform="matrix(1,0,0,1,-3352,-17330) matrix(1,0,0,1,3352.32,17330)"><path fill="none" d="M0 0H2952.76V2952.76H0z"/><clipPath id="a"><path d="M0 0H2952.76V2952.76H0z"/></clipPath><g clip-path="url(#a)"><g id="change1_7"><path d="M123.76 1151.79H189.679V1670.71H123.76z" transform="matrix(0.592324,0,0,0.592324,1084.78,2051.47)"/></g><g id="change1_5"><path d="M123.76 1151.79H189.679V1670.71H123.76z" transform="matrix(-0.592324,0,0,0.914974,1501.75,1576.52)"/></g><g id="change1_22"><path d="M123.76 1151.79H189.679V1670.71H123.76z" transform="matrix(-0.592324,0,0,0.592324,861.44,2058.84)"/></g><g id="change1_27"><path d="M123.76 1151.79H189.679V1670.71H123.76z" transform="matrix(-0.592324,0,0,0.592324,2105.16,2061.06)"/></g><g id="change1_6"><path d="M123.76 1151.79H189.679V1670.71H123.76z" transform="matrix(0.592324,0,0,0.592324,919.016,2056.4)"/></g><g id="change1_28"><path d="M123.76 1151.79H189.679V1670.71H123.76z" transform="matrix(0.592324,0,0,0.592324,2162.73,2058.62)"/></g><g id="change1_9"><path d="M123.76 1151.79H189.679V1670.71H123.76z" transform="matrix(-0.592324,0,0,1.38128,1565.88,935.61)"/></g><g id="change1_10"><path d="M123.76 1151.79H189.679V1670.71H123.76z" transform="matrix(-0.592324,0,0,0.828099,921.527,1726.1)"/></g><g id="change1_12"><path d="M123.76 1151.79H189.679V1670.71H123.76z" transform="matrix(-0.592324,0,0,0.828099,2165.24,1728.32)"/></g><g id="change1_14"><path d="M123.76 1151.79H189.679V1670.71H123.76z" transform="matrix(0.592324,0,0,0.828099,1500.1,1716.29)"/></g><g id="change1_2"><path d="M123.76 1151.79H189.679V1670.71H123.76z" transform="matrix(0.592324,0,0,1.10203,859.728,1332.14)"/></g><g id="change1_32"><path d="M123.76 1151.79H189.679V1670.71H123.76z" transform="matrix(0.592324,0,0,1.10203,2103.44,1334.36)"/></g><g id="change1_25"><path d="M123.76 1151.79H189.679V1670.71H123.76z" transform="matrix(-0.592324,0,0,1.08097,1625.51,1359.43)"/></g><g id="change1_1"><path d="M123.76 1151.79H189.679V1670.71H123.76z" transform="matrix(-0.592324,0,0,1.38128,984.718,935.61)"/></g><g id="change1_16"><path d="M123.76 1151.79H189.679V1670.71H123.76z" transform="matrix(-0.592324,0,0,1.38128,2228.43,937.83)"/></g><g id="change1_8"><path d="M123.76 1151.79H189.679V1670.71H123.76z" transform="matrix(0.592324,0,0,0.488109,1143.32,2198.54)"/></g><g id="change1_24"><path d="M123.76 1151.79H189.679V1670.71H123.76z" transform="matrix(-0.592324,0,0,0.488109,1444.07,2198.54)"/></g><g id="change1_31"><path d="M123.76 1151.79H189.679V1670.71H123.76z" transform="matrix(-0.592324,0,0,0.488109,802.903,2205.91)"/></g><g id="change1_20"><path d="M123.76 1151.79H189.679V1670.71H123.76z" transform="matrix(-0.592324,0,0,0.488109,2046.62,2208.13)"/></g><g id="change1_23"><path d="M123.76 1151.79H189.679V1670.71H123.76z" transform="matrix(0.592324,0,0,0.488109,977.553,2203.47)"/></g><g id="change1_11"><path d="M123.76 1151.79H189.679V1670.71H123.76z" transform="matrix(0.592324,0,0,0.323109,1202.96,2428.96)"/></g><g id="change1_18"><path d="M123.76 1151.79H189.679V1670.71H123.76z" transform="matrix(-0.592324,0,0,0.323109,748.942,2433.89)"/></g><g id="change1_13"><path d="M123.76 1151.79H189.679V1670.71H123.76z" transform="matrix(-0.592324,0,0,0.323109,1992.66,2436.11)"/></g><g id="change1_17"><path d="M123.76 1151.79H189.679V1670.71H123.76z" transform="matrix(-0.592324,0,0,0.323109,687.983,2436.33)"/></g><g id="change1_21"><path d="M123.76 1151.79H189.679V1670.71H123.76z" transform="matrix(-0.592324,0,0,0.323109,1931.7,2438.55)"/></g><g id="change1_4"><path d="M123.76 1151.79H189.679V1670.71H123.76z" transform="matrix(-0.592324,0,0,0.478824,625.774,2219.01)"/></g><g id="change1_26"><path d="M123.76 1151.79H189.679V1670.71H123.76z" transform="matrix(-0.592324,0,0,0.478824,1869.49,2221.23)"/></g><g id="change1_3"><path d="M123.76 1151.79H189.679V1670.71H123.76z" transform="matrix(-0.592324,0,0,0.323109,565.369,2436.33)"/></g><g id="change1_29"><path d="M123.76 1151.79H189.679V1670.71H123.76z" transform="matrix(-0.592324,0,0,0.323109,1809.08,2438.55)"/></g><g id="change1_30"><path d="M123.76 1151.79H189.679V1670.71H123.76z" transform="matrix(-0.592324,0,0,0.266011,501.616,2516.9)"/></g><g id="change1_15"><path d="M123.76 1151.79H189.679V1670.71H123.76z" transform="matrix(-0.592324,0,0,0.266011,1745.33,2519.12)"/></g><g id="change1_19"><path d="M123.76 1151.79H189.679V1670.71H123.76z" transform="matrix(-0.592324,0,0,0.323109,1218.66,2433.89)"/></g></g></g></g></svg>